# xmcd
#
# Track frame offsets:
#	150
#	23000
#	41581
#	68023
#	89451
#	109188
#	132158
#	154858
#	176968
#	195222
#	225760
#	250664
#	269004
#	288173
#	317109
#
# Disc length: 4548 seconds
#
# Revision: 0
# Processed by: cddbd v1.4PL0 Copyright (c) Steve Scherf et al.
# Submitted via: dBpowerAMP V4.0
#
DISCID=c411c20f
DTITLE=Sliick Dick - Roblo
DYEAR=1900
DGENRE=Blues
TTITLE0=h
TTITLE1=m
TTITLE2=m
TTITLE3=p
TTITLE4=l
TTITLE5=a
TTITLE6=y
TTITLE7=w
TTITLE8=i
TTITLE9=t
TTITLE10=i
TTITLE11=t
TTITLE12=K
TTITLE13=e
TTITLE14=y
EXTD=Love Me.\n
EXTT0=
EXTT1=
EXTT2=
EXTT3=
EXTT4=
EXTT5=
EXTT6=
EXTT7=
EXTT8=
EXTT9=
EXTT10=
EXTT11=
EXTT12=
EXTT13=
EXTT14=
PLAYORDER=
